<?xml version="1.0" standalone="no"?>
<!DOCTYPE svg PUBLIC "-//W3C//DTD SVG 20010904//EN"
 "http://www.w3.org/TR/2001/REC-SVG-20010904/DTD/svg10.dtd">
<svg version="1.0" xmlns="http://www.w3.org/2000/svg"
 width="1347.000000pt" height="1297.000000pt" viewBox="0 0 1347.000000 1297.000000"
 preserveAspectRatio="xMidYMid meet">

<g transform="translate(0.000000,1297.000000) scale(0.100000,-0.100000)"
fill="#000000" stroke="none">
<path d="M3080 12765 c0 -768 -229 -1447 -680 -2015 -165 -208 -444 -467 -682
-633 -445 -311 -1035 -550 -1607 -653 l-104 -19 7 -83 c3 -46 22 -208 41 -360
531 -4210 2794 -7307 6514 -8913 l184 -80 121 52 c1105 473 2141 1107 3036
1859 454 381 937 866 1319 1325 778 931 1377 1993 1761 3121 473 1390 594
2638 359 3694 -354 1591 -1497 2624 -3159 2855 -369 51 -182 48 -3772 52
l-3338 4 0 -206z m6875 -283 c749 -88 1287 -281 1763 -634 712 -529 1132
-1339 1249 -2408 24 -229 25 -772 0 -1020 -82 -816 -319 -1716 -674 -2550 -86
-202 -270 -581 -380 -785 -1044 -1921 -2781 -3488 -4958 -4475 -99 -45 -189
-82 -200 -82 -37 0 -500 217 -800 375 -1510 792 -2735 1877 -3657 3237 -843
1244 -1419 2730 -1683 4341 -48 295 -86 583 -77 590 4 3 52 18 107 34 278 77
591 201 860 339 1048 540 1751 1435 1976 2515 31 154 69 422 69 497 l0 44
3153 -3 c2317 -3 3178 -7 3252 -15z"/>
<path d="M3921 11938 c-53 -270 -115 -481 -208 -718 -117 -295 -287 -609 -465
-857 -255 -354 -631 -722 -1010 -989 -316 -222 -743 -442 -1123 -580 l-90 -32
3 -34 c7 -73 66 -415 108 -623 189 -927 480 -1787 875 -2585 385 -778 818
-1429 1388 -2080 180 -206 615 -640 826 -825 589 -514 1194 -928 1900 -1302
167 -89 506 -254 607 -296 l36 -15 318 157 c843 416 1530 859 2199 1417 262
217 367 315 661 608 443 443 751 809 1086 1292 388 560 740 1229 988 1879 214
559 392 1226 469 1760 69 476 78 976 25 1385 -182 1395 -1012 2284 -2334 2500
-317 51 -217 50 -3335 50 l-2902 0 -22 -112z m3426 -570 c5 -7 24 -170 42
-363 17 -192 35 -371 38 -397 l6 -48 371 0 c384 0 396 -1 396 -40 0 -40 -52
-63 -441 -196 -216 -74 -394 -136 -396 -138 -2 -2 -272 -401 -599 -887 l-595
-884 196 -3 196 -2 -7 -23 c-4 -12 -35 -130 -69 -262 l-62 -240 -294 -22
c-162 -12 -304 -22 -316 -22 -15 -1 -34 -19 -61 -58 -146 -214 -597 -693 -744
-790 -103 -69 -179 -97 -241 -89 -142 16 -236 151 -208 299 20 109 70 208 206
407 40 58 84 126 99 153 l28 47 -24 0 c-12 1 -689 85 -1502 189 l-1479 187
-23 28 c-18 21 -24 39 -24 78 0 44 4 54 34 84 l34 34 1723 1 1724 1 760 849
c418 467 779 871 802 897 l41 48 -346 124 c-345 124 -392 146 -392 188 0 41 7
42 416 42 l392 0 11 33 c5 17 58 192 116 387 58 195 110 365 115 378 11 25 60
31 77 10z m67 -4625 c482 -2058 474 -2023 518 -2163 87 -274 196 -364 438
-365 94 0 110 3 150 25 79 44 75 3 78 760 2 371 0 698 -3 727 -7 61 -38 112
-80 132 -17 8 -58 17 -92 19 l-63 4 0 109 0 109 470 0 470 0 0 -109 0 -108
-65 -5 c-79 -7 -121 -30 -149 -83 -20 -39 -21 -55 -24 -539 l-3 -498 367 447
366 448 -4 58 c-7 98 -73 157 -185 167 l-53 4 0 109 0 109 465 0 465 0 0 -110
0 -110 -53 0 c-73 0 -136 -33 -162 -85 -19 -39 -20 -60 -20 -750 0 -690 1
-711 20 -749 29 -58 62 -77 139 -83 l66 -6 0 -108 0 -109 -460 0 -460 0 0 110
0 110 48 0 c62 0 130 34 155 78 29 50 38 212 35 645 l-3 388 -367 -447 c-366
-445 -368 -447 -368 -493 0 -26 8 -62 18 -81 22 -41 90 -80 142 -80 80 0 80 0
80 -116 l0 -104 -1150 0 -1150 0 0 104 0 105 58 6 c98 10 116 14 150 35 50 31
66 78 59 180 -7 95 -43 301 -83 470 l-26 110 -411 0 -412 0 -68 -283 c-88
-365 -88 -425 3 -476 31 -17 141 -39 208 -41 1 0 2 -47 2 -105 l0 -105 -955 0
-955 0 0 104 c0 115 0 116 78 116 42 0 91 21 119 51 44 49 46 75 50 659 3 305
3 553 0 550 -3 -3 -131 -320 -286 -705 -155 -385 -285 -703 -289 -707 -4 -4
-21 27 -37 70 -16 42 -145 367 -287 722 l-257 645 2 -585 c2 -542 3 -587 20
-618 21 -39 68 -70 117 -77 19 -3 50 -8 68 -11 l32 -5 0 -104 0 -105 -355 0
-355 0 0 105 0 104 38 6 c125 20 182 64 201 156 8 39 11 246 9 720 l-3 664
-25 44 c-29 50 -74 77 -149 87 l-51 7 0 108 0 109 382 -2 381 -3 198 -529
c109 -291 200 -533 201 -538 2 -5 93 234 204 529 l201 538 366 3 367 2 0 -109
0 -108 -58 -7 c-73 -8 -121 -34 -147 -77 -20 -33 -20 -52 -20 -754 0 -700 1
-721 20 -760 32 -64 75 -80 220 -80 116 0 123 1 188 33 37 19 77 47 91 65 31
41 95 193 140 332 19 61 256 978 526 2040 529 2081 500 1968 506 1963 2 -3
204 -860 448 -1905z m2998 1667 c85 -24 119 -131 59 -190 -16 -16 -39 -31 -52
-34 -23 -6 -2962 -226 -2966 -223 -3 4 -103 435 -103 446 0 15 3007 16 3062 1z"/>
<path d="M6592 6030 c-101 -425 -181 -774 -179 -776 2 -2 157 -3 344 -2 l340
3 -158 763 c-87 419 -159 767 -161 773 -2 6 -86 -337 -186 -761z"/>
</g>
</svg>
